ply
format ascii 1.0
element vertex 20
property double x
property double y
property double z
property uchar red
property uchar green
property uchar blue
element face 32
property list uchar int vertex_indices
end_header
-399.972 -425.718 44.3974 144 105 40
-391.573 -417.195 51.3182 81 51 19
-444.288 -382.863 44.4557 82 52 20
-435.916 -374.343 51.3643 211 198 167
-419.776 -341.824 49.8206 152 138 146
-383.523 -377.181 49.6248 173 182 195
-424.94 -347.336 45.2415 124 137 115
-389.939 -384.029 43.9358 126 140 119
-399.972 -425.718 36.8132 212 223 231
-382.882 -408.376 44.1912 234 239 227
-382.882 -408.376 36.667 204 215 221
-427.544 -365.824 36.6505 188 165 196
-414.696 -336.8 45.1426 173 182 191
-378.544 -371.802 44.828 154 138 172
-444.288 -382.863 36.7939 197 173 159
-424.208 -346.96 36.5517 76 154 99
-414.508 -336.982 36.4682 103 142 117
-427.544 -365.824 44.4888 89 123 112
-389.507 -383.513 36.5804 119 78 162
-378.573 -371.774 36.4839 99 167 145
3 2 0 1
3 6 7 5
3 8 1 0
3 12 4 5
3 0 2 14
3 4 12 6
3 6 15 18
3 5 19 13
3 10 11 17
3 3 1 9
3 19 16 12
3 14 3 11
3 18 15 16
3 10 8 14
3 1 3 2
3 5 4 6
3 10 9 1
3 8 10 1
3 5 13 12
3 14 8 0
3 12 16 15
3 6 12 15
3 18 7 6
3 5 18 19
3 5 7 18
3 17 9 10
3 9 17 3
3 12 13 19
3 11 3 17
3 14 2 3
3 16 19 18
3 14 11 10
