# Vectary OBJ Export units=mm
mtllib Project Name.mtl
o 000_model
g model
usemtl $Material_0_cc753309-5f74-4288-899d-ff5785546f3d
v 50.094 4.784 -42.710
v 66.837 3.429 -59.696
v 111.498 6.474 -17.251
v 94.410 7.853 0.035
v 66.839 11.245 -60.255
v 58.463 18.710 -52.242
v 102.805 21.713 -9.495
v 111.499 13.977 -17.788
v 50.093 12.423 -43.255
v 94.410 15.414 -0.505
v 115.809 3.687 -53.749
v 104.877 4.616 -42.049
v 70.171 1.987 -78.502
v 79.873 1.196 -88.451
v 104.447 11.989 -42.060
v 110.859 17.175 -49.292
v 74.607 14.857 -84.574
v 69.441 10.680 -78.748
v 115.838 12.006 -54.315
v 79.685 9.833 -89.250
vn -0.19889 -0.97487 0.10038
vn 0.29238 -0.86862 -0.40002
vn 0.22659 -0.97006 0.08745
vn -0.19889 -0.97487 0.10038
vn 0.22659 -0.97006 0.08745
vn -0.29539 -0.80588 0.51313
vn 0.26459 0.67051 -0.69312
vn -0.18355 0.98288 0.01611
vn 0.24135 0.96560 -0.09682
vn 0.26459 0.67051 -0.69312
vn 0.24135 0.96560 -0.09682
vn 0.64723 0.43860 -0.62348
vn -0.18355 0.98288 0.01611
vn -0.75397 0.49570 0.43105
vn -0.29514 0.76792 0.56849
vn -0.18355 0.98288 0.01611
vn -0.29514 0.76792 0.56849
vn 0.24135 0.96560 -0.09682
vn 0.29238 -0.86862 -0.40002
vn 0.26459 0.67051 -0.69312
vn 0.64723 0.43860 -0.62348
vn 0.29238 -0.86862 -0.40002
vn 0.64723 0.43860 -0.62348
vn 0.22659 -0.97006 0.08745
vn -0.75397 0.49570 0.43105
vn -0.19889 -0.97487 0.10038
vn -0.29539 -0.80588 0.51313
vn -0.75397 0.49570 0.43105
vn -0.29539 -0.80588 0.51313
vn -0.29514 0.76792 0.56849
vn 0.26459 0.67051 -0.69312
vn 0.29238 -0.86862 -0.40002
vn -0.19889 -0.97487 0.10038
vn 0.26459 0.67051 -0.69312
vn -0.19889 -0.97487 0.10038
vn -0.75397 0.49570 0.43105
vn 0.26459 0.67051 -0.69312
vn -0.75397 0.49570 0.43105
vn -0.18355 0.98288 0.01611
vn 0.22659 -0.97006 0.08745
vn 0.64723 0.43860 -0.62348
vn 0.24135 0.96560 -0.09682
vn 0.22659 -0.97006 0.08745
vn 0.24135 0.96560 -0.09682
vn -0.29514 0.76792 0.56849
vn 0.22659 -0.97006 0.08745
vn -0.29514 0.76792 0.56849
vn -0.29539 -0.80588 0.51313
vn 0.33529 -0.94162 0.03044
vn -0.42023 -0.69323 0.58552
vn -0.30667 -0.93993 0.14993
vn 0.33529 -0.94162 0.03044
vn -0.30667 -0.93993 0.14993
vn 0.45547 -0.67510 -0.58033
vn -0.34234 0.70925 0.61626
vn 0.24306 0.96861 -0.05217
vn -0.19423 0.97929 0.05716
vn -0.34234 0.70925 0.61626
vn -0.19423 0.97929 0.05716
vn -0.80184 0.31056 0.51050
vn 0.24306 0.96861 -0.05217
vn 0.69770 0.27162 -0.66290
vn 0.34222 0.54450 -0.76577
vn 0.24306 0.96861 -0.05217
vn 0.34222 0.54450 -0.76577
vn -0.19423 0.97929 0.05716
vn 0.69770 0.27162 -0.66290
vn 0.33529 -0.94162 0.03044
vn 0.45547 -0.67510 -0.58033
vn 0.69770 0.27162 -0.66290
vn 0.45547 -0.67510 -0.58033
vn 0.34222 0.54450 -0.76577
vn -0.42023 -0.69323 0.58552
vn -0.34234 0.70925 0.61626
vn -0.80184 0.31056 0.51050
vn -0.42023 -0.69323 0.58552
vn -0.80184 0.31056 0.51050
vn -0.30667 -0.93993 0.14993
vn 0.33529 -0.94162 0.03044
vn 0.69770 0.27162 -0.66290
vn 0.24306 0.96861 -0.05217
vn 0.33529 -0.94162 0.03044
vn 0.24306 0.96861 -0.05217
vn -0.34234 0.70925 0.61626
vn 0.33529 -0.94162 0.03044
vn -0.34234 0.70925 0.61626
vn -0.42023 -0.69323 0.58552
vn 0.34222 0.54450 -0.76577
vn 0.45547 -0.67510 -0.58033
vn -0.30667 -0.93993 0.14993
vn 0.34222 0.54450 -0.76577
vn -0.30667 -0.93993 0.14993
vn -0.80184 0.31056 0.51050
vn 0.34222 0.54450 -0.76577
vn -0.80184 0.31056 0.51050
vn -0.19423 0.97929 0.05716
f 1//1 2//2 3//3 
f 1//4 3//5 4//6 
f 5//7 6//8 7//9 
f 5//10 7//11 8//12 
f 6//13 9//14 10//15 
f 6//16 10//17 7//18 
f 2//19 5//20 8//21 
f 2//22 8//23 3//24 
f 9//25 1//26 4//27 
f 9//28 4//29 10//30 
f 5//31 2//32 1//33 
f 5//34 1//35 9//36 
f 5//37 9//38 6//39 
f 3//40 8//41 7//42 
f 3//43 7//44 10//45 
f 3//46 10//47 4//48 
f 11//49 12//50 13//51 
f 11//52 13//53 14//54 
f 15//55 16//56 17//57 
f 15//58 17//59 18//60 
f 16//61 19//62 20//63 
f 16//64 20//65 17//66 
f 19//67 11//68 14//69 
f 19//70 14//71 20//72 
f 12//73 15//74 18//75 
f 12//76 18//77 13//78 
f 11//79 19//80 16//81 
f 11//82 16//83 15//84 
f 11//85 15//86 12//87 
f 20//88 14//89 13//90 
f 20//91 13//92 18//93 
f 20//94 18//95 17//96 
o 001_model_1
g model_1
usemtl $Material_0 1_5b87034a-0327-4a2c-aea5-4edfe35300b8
v -32.872 3.130 1.411
v -16.128 1.922 -15.586
v 28.532 4.599 26.884
v 11.444 5.829 44.181
v -16.127 9.742 -16.077
v -24.503 17.138 -8.001
v 19.840 19.771 34.771
v 28.534 12.107 26.412
v -32.872 10.773 0.932
v 11.444 13.395 43.707
v 32.843 2.128 -9.637
v 21.911 2.956 2.071
v -12.795 0.642 -34.404
v -3.092 -0.063 -44.360
v 21.481 10.329 2.123
v 27.894 15.577 -5.063
v -8.358 13.564 -40.364
v -13.524 9.337 -34.574
v 32.872 10.451 -10.131
v -3.280 8.581 -45.084
vn -0.19889 -0.97570 0.09195
vn 0.29238 -0.86513 -0.40751
vn 0.22659 -0.97078 0.07907
vn -0.19889 -0.97570 0.09195
vn 0.22659 -0.97078 0.07907
vn -0.29539 -0.81029 0.50615
vn 0.26459 0.67647 -0.68730
vn -0.18355 0.98270 0.02461
vn 0.24135 0.96640 -0.08847
vn 0.26459 0.67647 -0.68730
vn 0.24135 0.96640 -0.08847
vn 0.64723 0.44397 -0.61966
vn -0.18355 0.98270 0.02461
vn -0.75397 0.49196 0.43532
vn -0.29514 0.76298 0.57511
vn -0.18355 0.98270 0.02461
vn -0.29514 0.76298 0.57511
vn 0.24135 0.96640 -0.08847
vn 0.29238 -0.86513 -0.40751
vn 0.26459 0.67647 -0.68730
vn 0.64723 0.44397 -0.61966
vn 0.29238 -0.86513 -0.40751
vn 0.64723 0.44397 -0.61966
vn 0.22659 -0.97078 0.07907
vn -0.75397 0.49196 0.43532
vn -0.19889 -0.97570 0.09195
vn -0.29539 -0.81029 0.50615
vn -0.75397 0.49196 0.43532
vn -0.29539 -0.81029 0.50615
vn -0.29514 0.76298 0.57511
vn 0.26459 0.67647 -0.68730
vn 0.29238 -0.86513 -0.40751
vn -0.19889 -0.97570 0.09195
vn 0.26459 0.67647 -0.68730
vn -0.19889 -0.97570 0.09195
vn -0.75397 0.49196 0.43532
vn 0.26459 0.67647 -0.68730
vn -0.75397 0.49196 0.43532
vn -0.18355 0.98270 0.02461
vn 0.22659 -0.97078 0.07907
vn 0.64723 0.44397 -0.61966
vn 0.24135 0.96640 -0.08847
vn 0.22659 -0.97078 0.07907
vn 0.24135 0.96640 -0.08847
vn -0.29514 0.76298 0.57511
vn 0.22659 -0.97078 0.07907
vn -0.29514 0.76298 0.57511
vn -0.29539 -0.81029 0.50615
vn 0.33529 -0.94185 0.02230
vn -0.42023 -0.69827 0.57951
vn -0.30667 -0.94119 0.14180
vn 0.33529 -0.94185 0.02230
vn -0.30667 -0.94119 0.14180
vn 0.45547 -0.67006 -0.58615
vn -0.34234 0.70389 0.62237
vn 0.24306 0.96902 -0.04380
vn -0.19423 0.97876 0.06562
vn -0.34234 0.70389 0.62237
vn -0.19423 0.97876 0.06562
vn -0.80184 0.30614 0.51316
vn 0.24306 0.96902 -0.04380
vn 0.69770 0.27734 -0.66053
vn 0.34222 0.55110 -0.76104
vn 0.24306 0.96902 -0.04380
vn 0.34222 0.55110 -0.76104
vn -0.19423 0.97876 0.06562
vn 0.69770 0.27734 -0.66053
vn 0.33529 -0.94185 0.02230
vn 0.45547 -0.67006 -0.58615
vn 0.69770 0.27734 -0.66053
vn 0.45547 -0.67006 -0.58615
vn 0.34222 0.55110 -0.76104
vn -0.42023 -0.69827 0.57951
vn -0.34234 0.70389 0.62237
vn -0.80184 0.30614 0.51316
vn -0.42023 -0.69827 0.57951
vn -0.80184 0.30614 0.51316
vn -0.30667 -0.94119 0.14180
vn 0.33529 -0.94185 0.02230
vn 0.69770 0.27734 -0.66053
vn 0.24306 0.96902 -0.04380
vn 0.33529 -0.94185 0.02230
vn 0.24306 0.96902 -0.04380
vn -0.34234 0.70389 0.62237
vn 0.33529 -0.94185 0.02230
vn -0.34234 0.70389 0.62237
vn -0.42023 -0.69827 0.57951
vn 0.34222 0.55110 -0.76104
vn 0.45547 -0.67006 -0.58615
vn -0.30667 -0.94119 0.14180
vn 0.34222 0.55110 -0.76104
vn -0.30667 -0.94119 0.14180
vn -0.80184 0.30614 0.51316
vn 0.34222 0.55110 -0.76104
vn -0.80184 0.30614 0.51316
vn -0.19423 0.97876 0.06562
f 21//97 22//98 23//99 
f 21//100 23//101 24//102 
f 25//103 26//104 27//105 
f 25//106 27//107 28//108 
f 26//109 29//110 30//111 
f 26//112 30//113 27//114 
f 22//115 25//116 28//117 
f 22//118 28//119 23//120 
f 29//121 21//122 24//123 
f 29//124 24//125 30//126 
f 25//127 22//128 21//129 
f 25//130 21//131 29//132 
f 25//133 29//134 26//135 
f 23//136 28//137 27//138 
f 23//139 27//140 30//141 
f 23//142 30//143 24//144 
f 31//145 32//146 33//147 
f 31//148 33//149 34//150 
f 35//151 36//152 37//153 
f 35//154 37//155 38//156 
f 36//157 39//158 40//159 
f 36//160 40//161 37//162 
f 39//163 31//164 34//165 
f 39//166 34//167 40//168 
f 32//169 35//170 38//171 
f 32//172 38//173 33//174 
f 31//175 39//176 36//177 
f 31//178 36//179 35//180 
f 31//181 35//182 32//183 
f 40//184 34//185 33//186 
f 40//187 33//188 38//189 
f 40//190 38//191 37//192 
