# Vectary OBJ Export units=mm
mtllib Project Name.mtl
o 000_model
g model
usemtl $Material_0_cc753309-5f74-4288-899d-ff5785546f3d
v 85.178 6.578 -17.570
v 101.922 5.223 -34.555
v 146.583 8.268 7.889
v 129.494 9.647 25.175
v 101.923 13.039 -35.115
v 93.547 20.504 -27.102
v 137.890 23.507 15.645
v 146.584 15.771 7.352
v 85.178 14.217 -18.115
v 129.494 17.208 24.636
v 150.893 5.481 -28.609
v 139.961 6.410 -16.908
v 105.255 3.781 -53.362
v 114.958 2.990 -63.311
v 139.531 13.783 -16.920
v 145.944 18.969 -24.151
v 109.692 16.651 -59.433
v 104.526 12.474 -53.607
v 150.922 13.799 -29.174
v 114.770 11.627 -64.110
vn -0.19889 -0.97487 0.10038
vn 0.29238 -0.86862 -0.40002
vn 0.22659 -0.97006 0.08745
vn -0.19889 -0.97487 0.10038
vn 0.22659 -0.97006 0.08745
vn -0.29539 -0.80588 0.51313
vn 0.26459 0.67051 -0.69312
vn -0.18355 0.98288 0.01611
vn 0.24135 0.96560 -0.09682
vn 0.26459 0.67051 -0.69312
vn 0.24135 0.96560 -0.09682
vn 0.64723 0.43860 -0.62348
vn -0.18355 0.98288 0.01611
vn -0.75397 0.49570 0.43105
vn -0.29514 0.76792 0.56849
vn -0.18355 0.98288 0.01611
vn -0.29514 0.76792 0.56849
vn 0.24135 0.96560 -0.09682
vn 0.29238 -0.86862 -0.40002
vn 0.26459 0.67051 -0.69312
vn 0.64723 0.43860 -0.62348
vn 0.29238 -0.86862 -0.40002
vn 0.64723 0.43860 -0.62348
vn 0.22659 -0.97006 0.08745
vn -0.75397 0.49570 0.43105
vn -0.19889 -0.97487 0.10038
vn -0.29539 -0.80588 0.51313
vn -0.75397 0.49570 0.43105
vn -0.29539 -0.80588 0.51313
vn -0.29514 0.76792 0.56849
vn 0.26459 0.67051 -0.69312
vn 0.29238 -0.86862 -0.40002
vn -0.19889 -0.97487 0.10038
vn 0.26459 0.67051 -0.69312
vn -0.19889 -0.97487 0.10038
vn -0.75397 0.49570 0.43105
vn 0.26459 0.67051 -0.69312
vn -0.75397 0.49570 0.43105
vn -0.18355 0.98288 0.01611
vn 0.22659 -0.97006 0.08745
vn 0.64723 0.43860 -0.62348
vn 0.24135 0.96560 -0.09682
vn 0.22659 -0.97006 0.08745
vn 0.24135 0.96560 -0.09682
vn -0.29514 0.76792 0.56849
vn 0.22659 -0.97006 0.08745
vn -0.29514 0.76792 0.56849
vn -0.29539 -0.80588 0.51313
vn 0.33529 -0.94162 0.03044
vn -0.42023 -0.69323 0.58552
vn -0.30667 -0.93993 0.14993
vn 0.33529 -0.94162 0.03044
vn -0.30667 -0.93993 0.14993
vn 0.45547 -0.67510 -0.58033
vn -0.34234 0.70925 0.61626
vn 0.24306 0.96861 -0.05217
vn -0.19423 0.97929 0.05716
vn -0.34234 0.70925 0.61626
vn -0.19423 0.97929 0.05716
vn -0.80184 0.31056 0.51050
vn 0.24306 0.96861 -0.05217
vn 0.69770 0.27162 -0.66290
vn 0.34222 0.54450 -0.76577
vn 0.24306 0.96861 -0.05217
vn 0.34222 0.54450 -0.76577
vn -0.19423 0.97929 0.05716
vn 0.69770 0.27162 -0.66290
vn 0.33529 -0.94162 0.03044
vn 0.45547 -0.67510 -0.58033
vn 0.69770 0.27162 -0.66290
vn 0.45547 -0.67510 -0.58033
vn 0.34222 0.54450 -0.76577
vn -0.42023 -0.69323 0.58552
vn -0.34234 0.70925 0.61626
vn -0.80184 0.31056 0.51050
vn -0.42023 -0.69323 0.58552
vn -0.80184 0.31056 0.51050
vn -0.30667 -0.93993 0.14993
vn 0.33529 -0.94162 0.03044
vn 0.69770 0.27162 -0.66290
vn 0.24306 0.96861 -0.05217
vn 0.33529 -0.94162 0.03044
vn 0.24306 0.96861 -0.05217
vn -0.34234 0.70925 0.61626
vn 0.33529 -0.94162 0.03044
vn -0.34234 0.70925 0.61626
vn -0.42023 -0.69323 0.58552
vn 0.34222 0.54450 -0.76577
vn 0.45547 -0.67510 -0.58033
vn -0.30667 -0.93993 0.14993
vn 0.34222 0.54450 -0.76577
vn -0.30667 -0.93993 0.14993
vn -0.80184 0.31056 0.51050
vn 0.34222 0.54450 -0.76577
vn -0.80184 0.31056 0.51050
vn -0.19423 0.97929 0.05716
f 1//1 2//2 3//3 
f 1//4 3//5 4//6 
f 5//7 6//8 7//9 
f 5//10 7//11 8//12 
f 6//13 9//14 10//15 
f 6//16 10//17 7//18 
f 2//19 5//20 8//21 
f 2//22 8//23 3//24 
f 9//25 1//26 4//27 
f 9//28 4//29 10//30 
f 5//31 2//32 1//33 
f 5//34 1//35 9//36 
f 5//37 9//38 6//39 
f 3//40 8//41 7//42 
f 3//43 7//44 10//45 
f 3//46 10//47 4//48 
f 11//49 12//50 13//51 
f 11//52 13//53 14//54 
f 15//55 16//56 17//57 
f 15//58 17//59 18//60 
f 16//61 19//62 20//63 
f 16//64 20//65 17//66 
f 19//67 11//68 14//69 
f 19//70 14//71 20//72 
f 12//73 15//74 18//75 
f 12//76 18//77 13//78 
f 11//79 19//80 16//81 
f 11//82 16//83 15//84 
f 11//85 15//86 12//87 
f 20//88 14//89 13//90 
f 20//91 13//92 18//93 
f 20//94 18//95 17//96 
o 001_model_1
g model_1
usemtl $Material_0 1_5b87034a-0327-4a2c-aea5-4edfe35300b8
v -34.362 2.788 122.638
v -12.382 3.737 106.207
v 30.306 0.007 162.663
v 7.884 -0.958 179.376
v -12.381 11.556 106.725
v -23.376 17.870 115.395
v 18.899 14.059 172.130
v 30.308 7.513 163.160
v -34.362 10.429 123.145
v 7.883 6.606 179.878
v 41.799 2.543 121.720
v 27.338 1.878 133.145
v -5.205 5.025 85.308
v 7.551 5.584 75.665
v 26.760 9.184 134.141
v 35.235 15.301 127.865
v 0.731 18.602 81.123
v -6.096 13.674 86.179
v 41.826 10.860 122.309
v 7.371 14.253 75.999
vn -0.17688 -0.98200 -0.06622
vn 0.32751 -0.84426 -0.42423
vn 0.19465 -0.98071 -0.01811
vn -0.17688 -0.98200 -0.06622
vn 0.19465 -0.98071 -0.01811
vn -0.32902 -0.89456 0.30250
vn 0.33688 0.80045 -0.49578
vn -0.17122 0.97866 0.11365
vn 0.21384 0.97406 0.07406
vn 0.33688 0.80045 -0.49578
vn 0.21384 0.97406 0.07406
vn 0.70875 0.56343 -0.42453
vn -0.17122 0.97866 0.11365
vn -0.79304 0.49170 0.35962
vn -0.36136 0.73605 0.57240
vn -0.17122 0.97866 0.11365
vn -0.36136 0.73605 0.57240
vn 0.21384 0.97406 0.07406
vn 0.32751 -0.84426 -0.42423
vn 0.33688 0.80045 -0.49578
vn 0.70875 0.56343 -0.42453
vn 0.32751 -0.84426 -0.42423
vn 0.70875 0.56343 -0.42453
vn 0.19465 -0.98071 -0.01811
vn -0.79304 0.49170 0.35962
vn -0.17688 -0.98200 -0.06622
vn -0.32902 -0.89456 0.30250
vn -0.79304 0.49170 0.35962
vn -0.32902 -0.89456 0.30250
vn -0.36136 0.73605 0.57240
vn 0.33688 0.80045 -0.49578
vn 0.32751 -0.84426 -0.42423
vn -0.17688 -0.98200 -0.06622
vn 0.33688 0.80045 -0.49578
vn -0.17688 -0.98200 -0.06622
vn -0.79304 0.49170 0.35962
vn 0.33688 0.80045 -0.49578
vn -0.79304 0.49170 0.35962
vn -0.17122 0.97866 0.11365
vn 0.19465 -0.98071 -0.01811
vn 0.70875 0.56343 -0.42453
vn 0.21384 0.97406 0.07406
vn 0.19465 -0.98071 -0.01811
vn 0.21384 0.97406 0.07406
vn -0.36136 0.73605 0.57240
vn 0.19465 -0.98071 -0.01811
vn -0.36136 0.73605 0.57240
vn -0.32902 -0.89456 0.30250
vn 0.29888 -0.95306 -0.04839
vn -0.46268 -0.80497 0.37142
vn -0.27959 -0.95949 -0.03473
vn 0.29888 -0.95306 -0.04839
vn -0.27959 -0.95949 -0.03473
vn 0.51848 -0.64908 -0.55666
vn -0.41606 0.67625 0.60793
vn 0.20923 0.97135 0.11270
vn -0.18633 0.97145 0.14684
vn -0.41606 0.67625 0.60793
vn -0.18633 0.97145 0.14684
vn -0.86719 0.28334 0.40951
vn 0.20923 0.97135 0.11270
vn 0.78017 0.39280 -0.48687
vn 0.42988 0.69192 -0.58004
vn 0.20923 0.97135 0.11270
vn 0.42988 0.69192 -0.58004
vn -0.18633 0.97145 0.14684
vn 0.78017 0.39280 -0.48687
vn 0.29888 -0.95306 -0.04839
vn 0.51848 -0.64908 -0.55666
vn 0.78017 0.39280 -0.48687
vn 0.51848 -0.64908 -0.55666
vn 0.42988 0.69192 -0.58004
vn -0.46268 -0.80497 0.37142
vn -0.41606 0.67625 0.60793
vn -0.86719 0.28334 0.40951
vn -0.46268 -0.80497 0.37142
vn -0.86719 0.28334 0.40951
vn -0.27959 -0.95949 -0.03473
vn 0.29888 -0.95306 -0.04839
vn 0.78017 0.39280 -0.48687
vn 0.20923 0.97135 0.11270
vn 0.29888 -0.95306 -0.04839
vn 0.20923 0.97135 0.11270
vn -0.41606 0.67625 0.60793
vn 0.29888 -0.95306 -0.04839
vn -0.41606 0.67625 0.60793
vn -0.46268 -0.80497 0.37142
vn 0.42988 0.69192 -0.58004
vn 0.51848 -0.64908 -0.55666
vn -0.27959 -0.95949 -0.03473
vn 0.42988 0.69192 -0.58004
vn -0.27959 -0.95949 -0.03473
vn -0.86719 0.28334 0.40951
vn 0.42988 0.69192 -0.58004
vn -0.86719 0.28334 0.40951
vn -0.18633 0.97145 0.14684
f 21//97 22//98 23//99 
f 21//100 23//101 24//102 
f 25//103 26//104 27//105 
f 25//106 27//107 28//108 
f 26//109 29//110 30//111 
f 26//112 30//113 27//114 
f 22//115 25//116 28//117 
f 22//118 28//119 23//120 
f 29//121 21//122 24//123 
f 29//124 24//125 30//126 
f 25//127 22//128 21//129 
f 25//130 21//131 29//132 
f 25//133 29//134 26//135 
f 23//136 28//137 27//138 
f 23//139 27//140 30//141 
f 23//142 30//143 24//144 
f 31//145 32//146 33//147 
f 31//148 33//149 34//150 
f 35//151 36//152 37//153 
f 35//154 37//155 38//156 
f 36//157 39//158 40//159 
f 36//160 40//161 37//162 
f 39//163 31//164 34//165 
f 39//166 34//167 40//168 
f 32//169 35//170 38//171 
f 32//172 38//173 33//174 
f 31//175 39//176 36//177 
f 31//178 36//179 35//180 
f 31//181 35//182 32//183 
f 40//184 34//185 33//186 
f 40//187 33//188 38//189 
f 40//190 38//191 37//192 
o 002_Box
g Box
usemtl $Material_0_cc753309-5f74-4288-899d-ff5785546f3d
v -96.732 -0.000 12.500
v -109.232 0.000 0.000
v -96.732 0.000 0.000
v -109.232 -0.000 12.500
v -121.732 0.000 0.000
v -121.732 -0.000 12.500
v -109.232 0.000 -12.500
v -96.732 0.000 -12.500
v -121.732 0.000 -12.500
v -121.732 12.500 0.000
v -121.732 12.500 -12.500
v -121.732 12.500 12.500
v -121.732 25.000 0.000
v -121.732 25.000 -12.500
v -121.732 25.000 12.500
v -109.232 12.500 12.500
v -96.732 12.500 12.500
v -109.232 25.000 12.500
v -96.732 25.000 12.500
v -109.232 12.500 -12.500
v -96.732 12.500 -12.500
v -109.232 25.000 -12.500
v -96.732 25.000 -12.500
v -96.732 12.500 0.000
v -96.732 25.000 0.000
v -109.232 25.000 0.000
vn 0.00000 -1.00000 -0.00000
vn 0.00000 -1.00000 -0.00000
vn 0.00000 -1.00000 -0.00000
vn 0.00000 -1.00000 -0.00000
vn 0.00000 -1.00000 -0.00000
vn 0.00000 -1.00000 -0.00000
vn 0.00000 -1.00000 -0.00000
vn 0.00000 -1.00000 -0.00000
vn 0.00000 -1.00000 -0.00000
vn 0.00000 -1.00000 -0.00000
vn 0.00000 -1.00000 -0.00000
vn 0.00000 -1.00000 -0.00000
vn 0.00000 -1.00000 -0.00000
vn 0.00000 -1.00000 -0.00000
vn 0.00000 -1.00000 -0.00000
vn 0.00000 -1.00000 -0.00000
vn -1.00000 0.00000 0.00000
vn -1.00000 0.00000 0.00000
vn -1.00000 0.00000 0.00000
vn -1.00000 0.00000 0.00000
vn -1.00000 0.00000 0.00000
vn -1.00000 0.00000 0.00000
vn -1.00000 0.00000 0.00000
vn -1.00000 0.00000 0.00000
vn -1.00000 0.00000 0.00000
vn -1.00000 0.00000 0.00000
vn -1.00000 0.00000 0.00000
vn -1.00000 0.00000 0.00000
vn -1.00000 0.00000 0.00000
vn -1.00000 0.00000 0.00000
vn -1.00000 0.00000 0.00000
vn -1.00000 0.00000 0.00000
vn 0.00000 -0.00000 1.00000
vn 0.00000 -0.00000 1.00000
vn 0.00000 -0.00000 1.00000
vn 0.00000 -0.00000 1.00000
vn 0.00000 -0.00000 1.00000
vn 0.00000 -0.00000 1.00000
vn 0.00000 -0.00000 1.00000
vn 0.00000 -0.00000 1.00000
vn 0.00000 -0.00000 1.00000
vn 0.00000 -0.00000 1.00000
vn 0.00000 -0.00000 1.00000
vn 0.00000 -0.00000 1.00000
vn 0.00000 -0.00000 1.00000
vn 0.00000 -0.00000 1.00000
vn 0.00000 -0.00000 1.00000
vn 0.00000 -0.00000 1.00000
vn 0.00000 0.00000 -1.00000
vn 0.00000 0.00000 -1.00000
vn 0.00000 0.00000 -1.00000
vn 0.00000 0.00000 -1.00000
vn 0.00000 0.00000 -1.00000
vn 0.00000 0.00000 -1.00000
vn 0.00000 0.00000 -1.00000
vn 0.00000 0.00000 -1.00000
vn 0.00000 0.00000 -1.00000
vn 0.00000 0.00000 -1.00000
vn 0.00000 0.00000 -1.00000
vn 0.00000 0.00000 -1.00000
vn 0.00000 0.00000 -1.00000
vn 0.00000 0.00000 -1.00000
vn 0.00000 0.00000 -1.00000
vn 0.00000 0.00000 -1.00000
vn 1.00000 0.00000 0.00000
vn 1.00000 0.00000 0.00000
vn 1.00000 0.00000 0.00000
vn 1.00000 0.00000 0.00000
vn 1.00000 0.00000 0.00000
vn 1.00000 0.00000 0.00000
vn 1.00000 0.00000 0.00000
vn 1.00000 0.00000 0.00000
vn 1.00000 0.00000 0.00000
vn 1.00000 0.00000 0.00000
vn 1.00000 0.00000 0.00000
vn 1.00000 0.00000 0.00000
vn 1.00000 0.00000 0.00000
vn 1.00000 0.00000 0.00000
vn 1.00000 0.00000 0.00000
vn 1.00000 0.00000 0.00000
vn 0.00000 1.00000 0.00000
vn 0.00000 1.00000 0.00000
vn 0.00000 1.00000 0.00000
vn 0.00000 1.00000 0.00000
vn 0.00000 1.00000 0.00000
vn 0.00000 1.00000 0.00000
vn 0.00000 1.00000 0.00000
vn 0.00000 1.00000 0.00000
vn 0.00000 1.00000 0.00000
vn 0.00000 1.00000 0.00000
vn 0.00000 1.00000 0.00000
vn 0.00000 1.00000 0.00000
vn 0.00000 1.00000 0.00000
vn 0.00000 1.00000 0.00000
vn 0.00000 1.00000 0.00000
vn 0.00000 1.00000 0.00000
f 43//195 41//193 44//196 42//194 
f 42//199 44//197 46//200 45//198 
f 48//203 43//201 42//204 47//202 
f 47//207 42//205 45//208 49//206 
f 51//211 49//209 45//212 50//210 
f 50//215 45//213 46//216 52//214 
f 54//219 51//217 50//220 53//218 
f 53//223 50//221 52//224 55//222 
f 52//227 46//225 44//228 56//226 
f 56//231 44//229 41//232 57//230 
f 55//235 52//233 56//236 58//234 
f 58//239 56//237 57//240 59//238 
f 61//243 48//241 47//244 60//242 
f 60//247 47//245 49//248 51//246 
f 63//251 61//249 60//252 62//250 
f 62//255 60//253 51//256 54//254 
f 57//259 41//257 43//260 64//258 
f 64//263 43//261 48//264 61//262 
f 59//267 57//265 64//268 65//266 
f 65//271 64//269 61//272 63//270 
f 53//275 55//273 58//276 66//274 
f 66//279 58//277 59//280 65//278 
f 54//283 53//281 66//284 62//282 
f 62//287 66//285 65//288 63//286 
